<?xml version="1.0"?>
<svg xmlns:rdf="http://www.w3.org/1999/02/22-rdf-syntax-ns#" xmlns="http://www.w3.org/2000/svg" xmlns:cc="http://creativecommons.org/ns#" xmlns:dc="http://purl.org/dc/elements/1.1/" xmlns:svg="http://www.w3.org/2000/svg" id="svg2483" viewBox="0 0 274.16 868.07" version="1.0">
  <g id="layer1" transform="translate(-218.82 -85.057)">
    <path id="path2543" d="m384.66 951.24c-13.54-2.67-21.39-7.41-26.58-16.03-5.36-8.9-6.88-10.7-14.56-17.25-6.26-5.33-7.09-16.15-2.02-26.31 2.37-4.75 2.88-9.19 1.93-16.75-0.71-5.66-1.24-13.46-1.18-17.34 0.07-3.88-2.6-15.88-5.92-26.67s-6.04-20.85-6.04-22.36-0.71-2.75-1.57-2.75c-0.87 0-1.27 25.8-0.9 57.33s0.14 60.25-0.51 63.81c-1.07 5.83-1.88 6.48-8.08 6.48-4.04 0-6.99-1.03-7.15-2.49-0.14-1.37-0.37-76.01-0.5-165.86l-0.23-163.36-9.64-0.56c-11.05-0.65-20-5.23-26.05-13.34-3.64-4.89-4.36-9.48-5.49-34.9-1.27-28.55-2.98-38.53-11.52-67.15-2.29-7.68-5.55-20.66-7.25-28.86-2.08-10.05-7.74-24.34-17.36-43.87-12.12-24.58-14.4-30.85-15.08-41.45-0.44-6.87 0.23-14.98 1.5-18.04 1.26-3.05 8.55-11.66 16.2-19.13 7.75-7.58 14.4-15.92 15.02-18.86 1.85-8.69 4.23-13.41 11.69-23.18 3.9-5.12 7.1-10.58 7.1-12.13s2.27-8.47 5.03-15.39c3.68-9.18 8.11-15.54 16.45-23.56 6.28-6.05 12.86-11.54 14.63-12.2 4.29-1.63 5.68-23.58 5.7-89.95 0.01-28.32 0.48-52.241 1.04-53.151s2.82-1.186 5.01-0.613c3.84 1.005 3.99 2.767 4.08 49.164 0.05 26.47 0.11 56.41 0.15 66.54 0.03 10.14 0.66 18.78 1.4 19.21 0.74 0.44 7.02 0.01 13.96-0.96 8.56-1.19 13.92-1.05 16.7 0.44 3.14 1.68 4.49 1.56 5.81-0.51 2.64-4.17 2.12-15.64-0.73-15.82-1.98-0.12-1.97-0.36 0.02-1.16 1.88-0.76 1.58-2.35-1.16-6.33-2.02-2.92-5.12-10.24-6.9-16.28-1.78-6.03-4.75-15.28-6.6-20.56-2.75-7.87-2.95-10.97-1.09-17.18 1.25-4.17 2.27-9.75 2.27-12.39 0-2.65 1.57-6.23 3.49-7.95 1.92-1.73 4.9-5.74 6.62-8.92s5.76-7.01 8.97-8.51c3.22-1.51 8.36-4.05 11.43-5.659 4.33-2.263 9.38-2.603 22.46-1.513 15.85 1.32 17.48 1.896 26.82 9.492 5.47 4.45 9.95 9.14 9.95 10.43 0 1.28 1.27 4.94 2.82 8.12 2 4.07 2.58 10.52 1.98 21.74-0.47 8.78-0.84 18.95-0.82 22.6 0.02 5.92-1.45 12.93-8.08 38.37-1.12 4.33-3.8 8.18-6.79 9.78-2.71 1.45-4.4 3.49-3.75 4.54 0.7 1.13 1.78 0.93 2.66-0.49 1.11-1.79 3.16-1.5 8.22 1.19 3.71 1.96 9.77 3.8 13.46 4.07 7.58 0.57 13.32 4.9 15 11.32 0.63 2.38 4.38 6.42 8.35 8.97 8.97 5.76 7.48 8.04-2.25 3.43-4.69-2.23-8.23-5.82-10.07-10.23-3.51-8.41-8.43-9.23-7.26-1.21 1.03 7.01-2.78 10.37-13.4 11.79-8.3 1.12-11.52-2.06-4.06-4.01 5.3-1.38 5.53-13.36 0.34-18.05-5.07-4.59-5.76-4.19-4.74 2.76 1.02 6.98-3.98 13.88-10.06 13.88-2.13 0-8.94 1.4-15.15 3.12-15.86 4.41-16.95 4.82-15.79 5.98 0.56 0.57 7.48-0.44 15.38-2.23 7.89-1.8 14.82-2.79 15.4-2.21 2.14 2.13-1.71 5.31-6.44 5.31-5.09 0-6.67 3.02-2.37 4.53 1.79 0.62 1.42 2.07-1.31 5.15-2.09 2.35-3.02 4.28-2.07 4.28s3.7-2.47 6.12-5.49c2.41-3.01 5.05-4.81 5.87-4 0.83 0.82-0.13 3.29-2.13 5.5-2 2.2-3.26 4.33-2.81 4.72s7.34 2.28 15.31 4.2c10.41 2.51 17.72 3.09 25.92 2.07 15.9-1.97 22.04-5.96 22.84-14.85l0.64-7.11 3.44 10.83c1.9 5.96 3.48 14.93 3.5 19.94 0.03 5.01 0.99 13.15 2.14 18.08 1.51 6.54 1.4 13.17-0.41 24.43-1.98 12.27-2 22.92-0.07 51.84 3.25 48.86 4.08 67.4 5.07 112.67 0.8 36.75 0.68 38.39-2.97 38.39-3.97 0-5.25 4.85-1.84 6.96 1.08 0.67 3.38 6.06 5.1 11.97 3.06 10.54 3.02 10.97-1.96 21.5-4.64 9.8-5.84 10.91-13.88 12.75-4.85 1.11-10.14 1.27-11.76 0.36-4.48-2.5-6.66 1.68-9.38 18.03-1.35 8.11-5 22.61-8.11 32.22-3.12 9.61-6.16 24.19-6.76 32.4-1.03 13.94-4.94 29.14-8.79 34.13-0.91 1.19-2.78 14.28-4.15 29.08-2.22 23.97-5.03 39.76-12.45 69.79-4.29 17.38-5.07 53.09-1.36 62.29 2.77 6.86 17.36 15.94 32.77 20.39 14.01 4.05 17.9 7.16 23.28 18.59 3.86 8.2 3.88 8.69 0.47 12.46-5.73 6.33-28.61 4.04-49.44-4.93-10.87-4.69-25.28-7.17-25.26-4.35 0.01 1.23 3.05 5.43 6.75 9.34 8.28 8.73 15.36 22.91 13.7 27.43-2.23 6.07-10.54 12.33-16.08 12.11-2.96-0.12-9.18-0.97-13.83-1.89zm12.11-10.73c1.85-4.83-6.01-12.39-15.7-15.1-8.4-2.35-9.52-2.24-13.06 1.3-3.55 3.54-3.61 4.19-0.75 7.77 3.04 3.82 3.09 3.8 1.88-0.58-0.73-2.67-0.35-4.48 0.95-4.48 1.2 0 2.71 2.69 3.37 5.98s2.1 5.98 3.19 5.98c1.16 0 1.49-2.53 0.8-5.98-0.69-3.46-0.35-5.98 0.8-5.98 1.1 0 2.53 2.69 3.19 5.98s2.43 5.98 3.94 5.98c3.18 0 3.66-3.18 0.74-4.99-2.55-1.57-2.59-4.98-0.05-4.98 1.07 0 3.34 2.69 5.04 5.98 3.51 6.79 4.12 7.13 5.66 3.12zm12.19-0.97c1.4-2.26-6.52-16.11-9.21-16.11-3.19 0-0.93 10.95 2.33 11.24 1.64 0.15 3.77 0.37 4.73 0.5 0.95 0.12 0.62 1.57-0.74 3.22-1.57 1.89-1.7 2.99-0.37 2.99 1.17 0 2.64-0.83 3.26-1.84zm-88.04-19.6c0.58-3.01 0.74-68.74 0.35-146.06s-0.79-158.53-0.89-180.46c-0.13-27.89-0.79-38.84-2.19-36.42-1.11 1.9-1.79 10.87-1.5 19.94 0.29 9.06 0.29 36.67 0.01 61.34-0.28 24.68-0.47 99.38-0.44 166.01 0.07 108.86 1.08 134.11 4.66 115.65zm40.96 1.74c2.22-1.41 2.23-2.42 0.05-5.91-2.07-3.31-2.11-4.72-0.18-6.64 2.95-2.96 3.17-5.64 0.45-5.64-1.1 0-2 1.3-2 2.88 0 4.01-3.89 5.99-6.55 3.33-2.68-2.68-9.4-2.95-9.4-0.38 0 2.9 10.07 14.12 12.64 14.08 1.27-0.01 3.52-0.79 4.99-1.72zm30.23-3.02c0-3.05-4.19-5.2-10.14-5.2-2.1 0-3.82-0.92-3.82-2.05 0-3.7-8.7-5.78-11.79-2.83-2.28 2.17-2.34 3.27-0.33 5.69 1.37 1.66 2.01 3.78 1.42 4.73-0.58 0.95 4.72 1.89 11.8 2.09 9.83 0.27 12.86-0.3 12.86-2.43zm-1.42-9.18c-1.27-4.88-3.78-5.07-8.2-0.61-2.9 2.92-2.92 3.21-0.17 2.17 1.74-0.66 4.43-0.4 5.98 0.58s2.95 1.8 3.12 1.81c0.17 0.02-0.16-1.76-0.73-3.95zm63.23-3.74c0-3.52-11.84-8.15-17.78-6.97-7.99 1.6-9.63 4.3-3.89 6.42 5.53 2.05 21.67 2.45 21.67 0.55zm-93.52-5.74c1.95-5.1 2.27-5.23 4.72-1.9 3.21 4.36 15.89 6.84 17.95 3.5 0.8-1.29 0.35-4.97-0.98-8.2-2.43-5.86-6.59-7.65-8.95-3.83-2.43 3.93-4.96-0.37-4.96-8.41 0-5.44 1.15-8.98 3.49-10.68 4.01-2.94 3.43-3.85-3.5-5.51-4.85-1.15-4.97-0.91-4.38 8.2 0.56 8.68 0.41 9.03-1.99 4.6-2.82-5.21-8.73-9.69-10.47-7.94-2.68 2.68-1.26 32.23 1.65 34.13 3.81 2.49 5.25 1.72 7.42-3.96zm63.61 1.63c0-2.6 2.28-4.68 6.98-6.38 7.24-2.62 8.78-5.78 4.49-9.21-2.63-2.1-10.53-2.1-12.62-0.01-0.68 0.68-2.71 0.76-4.53 0.19-2.82-0.9-2.87-0.75-0.3 1.06 3.03 2.13 4.63 10.23 2.03 10.23-2.56 0-8.05-7.27-6.59-8.73 0.78-0.78-0.78-0.61-3.47 0.38-4.5 1.67-12.91 0.47-17.77-2.54-1.11-0.68 0.87-3.82 4.42-7.02 5.95-5.35 6.19-6.02 3.17-9.08-2.74-2.78-4.01-2.91-7.98-0.82-8.97 4.73-9.81 9.16-3.06 16.07 2.55 2.62 5.2 6.31 5.89 8.19 0.69 1.89 3.76 3.95 6.82 4.57 3.07 0.63 7.82 2.37 10.56 3.87 7.38 4.03 11.96 3.73 11.96-0.77zm33.9-4.12c-2.74-0.88-6.33-1.67-7.98-1.76-2.65-0.15-2.65 0.04 0 1.76 1.65 1.06 5.24 1.86 7.98 1.77l4.99-0.17-4.99-1.6zm-6.98-5.89c3.65-1.49 3.52-1.75-1.59-3.09-6.05-1.59-8.54-0.49-6.47 2.87 1.51 2.44 2.55 2.46 8.06 0.22zm-44.86-11.24c0-0.38-1.35-0.17-3 0.46-1.64 0.63-2.99 2.06-2.99 3.17 0 1.17 1.27 0.97 2.99-0.46 1.65-1.36 3-2.79 3-3.17zm13.95-0.82c0-1.09-1.2-1.99-2.67-1.99-2.76 0-7.3-8.05-7.3-12.96 0-4.75-4.49-12.96-7.08-12.96-4.83 0-4.87 6.64-0.11 17.03 4.6 10.07 5.46 10.75 15.67 12.61 0.82 0.15 1.49-0.63 1.49-1.73zm-27.73-18.04c5.66-3.03 2.7-6.21-3.25-3.49-4.99 2.27-6.65 5.58-2.78 5.58 1.16 0 3.88-0.94 6.03-2.09zm-33.42-10.87c-0.18-5.48-1.27-16.25-2.42-23.93-3.74-25.07-4.05-29.04-2.11-27.84 1.03 0.64 1.87 3.91 1.87 7.27 0 5.39 4.55 36.7 7.12 48.99 0.59 2.82 2.4 4.48 4.89 4.48 3.39 0 3.99-1.46 4.26-10.46 0.17-5.76 0.23-11.82 0.14-13.46-0.1-1.65 0.68-18.7 1.73-37.89s2.29-45.67 2.75-58.83c0.66-18.71 1.97-27.35 5.99-39.63 2.84-8.64 5.12-19.41 5.07-23.93-0.04-4.52 0.15-11.36 0.44-15.2 0.47-6.31 0.06-6.92-4.19-6.32-2.99 0.42-4.22-0.13-3.37-1.49 0.74-1.2-0.06-2.16-1.78-2.16-3.72 0-4.12-3.19-0.61-4.8 1.37-0.63 0.38-0.62-2.2 0.03-3.51 0.88-6.3-0.39-11.12-5.06-6.18-5.99-6.67-6.12-12.17-3.27-6.14 3.19-10.23 2.15-4.41-1.11 5.3-2.96 4.25-6.36-1.51-4.91-5.98 1.5-6.53-0.89-1-4.35 2.2-1.37 3.99-3.48 3.99-4.69 0-1.34-1.93-0.94-4.91 1.01-5.92 3.87-7.08 4-6.96 0.73 0.05-1.37 3.6-5.19 7.88-8.48 4.29-3.29 7.84-6.7 7.89-7.58 0.05-0.87-2.91 0.7-6.58 3.49-7.57 5.78-13.44 7.1-9.28 2.1 2.02-2.44 1.91-2.99-0.59-2.99-1.69 0-4.41-0.52-6.05-1.14-3.58-1.38-2.14 6.53 5.99 32.85 6.39 20.67 5.68 35.38-3.43 70.98-5.8 22.68-6.06 25.28-4.87 49.85 0.88 18.11 2.78 31.64 6.31 44.87 2.78 10.42 6.79 25.67 8.91 33.9 5.33 20.65 5.14 20.29 10.17 19.58 4.03-0.57 4.46-1.66 4.16-10.61zm12.44-183.59c-3.56-3.56-3.97-6.08-1.28-7.75 1.02-0.63 2.14 0.89 2.49 3.37 0.5 3.47 1.73 4.37 5.35 3.86 2.99-0.42 4.22 0.12 3.37 1.49-1.91 3.09-6.29 2.66-9.93-0.97zm-23.07-10.58c0-2.6 5.15-6.4 6.64-4.9 1.5 1.49-2.29 6.65-4.89 6.65-0.96 0-1.75-0.79-1.75-1.75zm-0.08-10.07c1.22-2.27 3.58-4.14 5.25-4.14 3.76 0 1.94 3.24-3.44 6.13-3.66 1.96-3.83 1.77-1.81-1.99zm47.94 199.26c0-1.1 1.66-2 3.69-2 3.17 0 3.86-2.17 4.89-15.45 1.15-14.71 2.07-20.17 8.5-50.35 4.08-19.1 6.84-42.37 6.84-57.5 0-9.59 1.14-15.47 4.04-20.88 5.22-9.73 10.14-28.7 8.84-34.07-0.56-2.31 0.85-10.48 3.12-18.16 10.09-34.02 13.91-48.04 13.87-50.84-0.08-5.13-7.4 6.05-11.75 17.94-2.89 7.88-7.4 14.31-16.05 22.87-6.62 6.54-12.04 12.63-12.04 13.54 0 4.23-8.95 13.39-12.11 12.39-3.74-1.18-5.05 2.52-5.65 16-0.2 4.39-2.23 15.16-4.52 23.93-2.73 10.49-4.32 23.47-4.63 37.89-0.54 24.78-2.53 66.73-4.19 88.02-1.1 14.21-1.09 14.24 4.53 16.29 7.4 2.7 12.62 2.85 12.62 0.38zm-1.76-91.63c-0.18-8.2 0.32-10.3 2.06-8.57 1.67 1.67 1.74 4.62 0.24 10.87l-2.06 8.57-0.24-10.87zm1.04-15.59c-2.04-3.31-3.74-31.36-1.77-29.38 1.09 1.1 2.55 8.5 3.24 16.45 1.18 13.52 0.83 16.64-1.47 12.93zm11.06-42.42c-4.61-4.3-5.69-7.89-2.37-7.89 1.1 0 2 0.87 2 1.93s1.34 1.41 2.99 0.78c1.64-0.63 3.06-0.38 3.14 0.56s0.45 3.28 0.82 5.2c0.88 4.6-1.23 4.41-6.58-0.58zm5.11-32.9c-4.22-5.63-4.35-6.9-0.71-6.9 1.53 0 3.29-1.34 3.92-2.99 2.29-5.95 4.83-2.94 3.29 3.89-0.85 3.78-1.15 7.28-0.65 7.77 0.49 0.5 0.16 1.35-0.73 1.89-0.9 0.55-3.2-1.1-5.12-3.66zm11.38-11.02c-0.72-1.17-0.83-2.61-0.25-3.19 1.43-1.43 5.32 1.09 5.32 3.44 0 2.55-3.44 2.38-5.07-0.25zm-89.65 39.05c3.95-20.27 3.22-38.1-2.2-53.75-2.72-7.85-3.69-9.07-4.79-5.98-1.84 5.18 0.13 83.95 2.02 80.41 0.81-1.52 3.05-10.83 4.97-20.68zm72.09-42.41c1.86-3.01 8.06-10.42 13.77-16.45 7.94-8.39 11.34-14.01 14.46-23.93 3.46-11.02 3.57-12.32 0.73-8.71-1.83 2.34-8.86 11.32-15.61 19.96-12.3 15.74-20.63 24.55-20.63 21.81 0-0.81 4.34-6.55 9.64-12.77 12.39-14.52 19.06-24.27 16.63-24.27-1.06 0-4.68 4.26-8.05 9.47-8.24 12.76-23.23 28.55-21.76 22.93 0.82-3.15 0.35-3.9-1.9-3.04-2.28 0.88-2.69 0.17-1.69-2.97 0.92-2.91 0.09-4.98-2.84-7.03l-4.15-2.91 4.26-7.23c2.35-3.98 5.08-7.23 6.07-7.23 2.44 0 2.28 5.44-0.2 6.98-1.1 0.68-1.99 2.19-1.99 3.35 0 1.33 1.13 1.18 3.02-0.39 2.49-2.07 3.68-1.74 6.79 1.85l3.77 4.34 6.15-6.57c5.94-6.34 19.52-29.5 17.3-29.5-0.6 0-3.34 3.36-6.1 7.48-2.75 4.11-7.26 10.84-10.02 14.95-2.76 4.12-5.98 7.48-7.15 7.48-1.18 0 0.97-4.26 4.77-9.47 3.79-5.21 9.24-14.12 12.09-19.8 2.86-5.68 6.02-10.84 7.04-11.47 3.09-1.91 30.17-40.38 34.08-48.42 2.02-4.14 3.17-8.33 2.56-9.31s-3.67 3.37-6.8 9.67c-3.14 6.3-8.17 14.89-11.18 19.09-3.01 4.21-9.32 13.09-14.02 19.74-7.52 10.62-12.39 14.86-12.39 10.78 0-2.94 18.82-28.61 20.98-28.61 2.41 0 16.9-26.41 16.9-30.8 0-1.36 1.8-4.1 3.99-6.09 2.97-2.69 3.99-6.14 3.99-13.55 0-6.31 1.05-10.74 2.88-12.15 1.59-1.22 3.36-4.91 3.95-8.2l1.06-5.98-2.34 5.49c-1.28 3.01-3.05 5.48-3.94 5.48-1.78 0-1.99-6.27-2.67-79.76-0.49-53.41 0.83-64.9 10.28-89.87 2.06-5.44 2.85-10.66 1.95-12.96-1.32-3.4-1.82-3.1-4.24 2.63-1.51 3.56-3.91 6.6-5.34 6.76-10.9 1.2-15.55 1.15-15.55-0.16 0-3.94 4.6-14.08 6.39-14.08 1.11 0 1.48 1.39 0.83 3.09-0.68 1.78-0.35 2.58 0.78 1.88 1.09-0.67 1.97-2.41 1.97-3.86 0-1.46 2.25-4.12 4.99-5.91 10.21-6.69 6.53-8.61-18.45-9.59-18-0.72-27.49-2.19-40.95-6.38-9.63-2.99-18.52-5.1-19.75-4.69s1.93 5.18 7.02 10.61c5.08 5.42 9.26 10.43 9.28 11.12 0.09 3.13 19.01 16.35 27.86 19.47l9.81 3.45-11.95 13.82c-7.68 8.88-11.61 15.06-11.02 17.32 1.64 6.28-2.53 3.7-8.03-4.97-2.96-4.66-9.69-16.55-14.95-26.42-5.25-9.87-9.57-16.73-9.59-15.24-0.07 4.68 6.21 27.1 8.29 29.61 1.09 1.32 1.4 3.34 0.7 4.49-0.71 1.14-0.44 2.08 0.59 2.08 1.88 0 5.02 7.47 4.48 10.68-0.15 0.94 0.77 2.98 2.07 4.53 1.29 1.56 1.78 3.4 1.08 4.1-0.7 0.69-0.51 2.24 0.42 3.44 0.92 1.2 3.38 7 5.45 12.89 2.07 5.9 4.8 11.11 6.06 11.6 3.62 1.39 0.61 8.96-6.59 16.57-3.63 3.84-6.61 7.61-6.62 8.37-0.03 2.32-11.35 18.35-15.8 22.38-6.3 5.7-4.98 7.99 1.82 3.15 7.75-5.52 7.75-2.44 0 4.36-3.29 2.89-5.98 6.83-5.98 8.77 0 3.05 0.66 2.9 4.98-1.16 2.74-2.57 5.42-4.23 5.97-3.68s-1.24 3.1-3.98 5.67c-2.74 2.58-4.97 6.54-4.97 8.82 0.01 3.68 0.55 3.48 4.81-1.84 2.64-3.29 5.43-5.36 6.2-4.6 1.67 1.66-6.54 15.56-9.18 15.56-1.01 0-1.8 2.02-1.76 4.49 0.07 3.66 1.02 2.93 5.19-3.99 4.62-7.67 8.69-10.92 8.69-6.94 0 1.93-10.06 17.01-12.41 18.58-1.76 1.19-0.76 40.68 1.56 61.38 1.13 10.1 0.79 11.65-3.42 15.45-2.57 2.32-7.58 4.76-11.14 5.43-11.14 2.09-16.46 6.86-16.46 14.75 0 5.99 0.43 6.64 2.99 4.51 4.04-3.35 3.76-0.29-0.66 6.98-4.15 6.85-6.62 14.96-4.54 14.96 3.06 0 18.72 16.88 25.57 27.57 14.46 22.58 17.09 26.27 18.74 26.27 0.92 0 3.2-2.47 5.06-5.49zm-23.19-36.89c0.06-3.53 7.4-12.66 8.94-11.12 1.67 1.67-4.51 13.62-7.04 13.62-1.07 0-1.92-1.13-1.9-2.5zm-3.03-9.47c1.7-3.29 4.46-5.98 6.14-5.98 2.64 0 2.57 0.82-0.48 5.98-1.94 3.29-4.71 5.98-6.15 5.98-2.04 0-1.94-1.29 0.49-5.98zm-6.86 0c0-4.3 5.19-10.52 7.99-9.59 1.51 0.5 0.5 2.93-2.81 6.69-3.31 3.77-5.18 4.82-5.18 2.9zm-6.11-5.54c0-3.21 6.33-10.41 9.15-10.41 2.26 0 1.91 1.38-1.48 5.98-4.24 5.74-7.67 7.72-7.67 4.43zm-5.98-4.16c0-2.52 8.26-12.61 9.4-11.48 1.27 1.27-5.81 13.21-7.83 13.21-0.86 0-1.57-0.78-1.57-1.73zm59.07-23.8c-1.19-1.92 16.49-28.31 18.96-28.31 2.95 0 2.03 2-7.39 16.18-9.5 14.28-9.95 14.75-11.57 12.13zm-5.23-9.33c0-2.22 20.6-28.95 22.31-28.95 2.4 0-5.33 13.8-12.83 22.9-5.06 6.14-9.48 8.96-9.48 6.05zm-4.78-11.51c7.64-13.24 22.73-30.77 22.73-26.39 0 3.18-19 28.89-21.35 28.89-1.69 0-2.24-1-1.38-2.5zm-7.18-5.38c0-2.43 16.88-26.65 20.9-29.98 6.7-5.56 2.75 2.98-7.99 17.24-10.87 14.45-12.91 16.46-12.91 12.74zm-5.98-7.83c0-0.89 4.62-8.26 10.27-16.38 12.51-18 11.4-16.7 12.93-15.16 1.57 1.57-17.26 30.83-20.71 32.18-1.37 0.54-2.49 0.25-2.49-0.64zm-3.99-9.43c0-1.76 2.53-6.47 5.62-10.47s7.65-10.63 10.13-14.74c4.8-7.96 6.18-9.05 6.18-4.9 0 2.61-19.41 33.31-21.05 33.31-0.49 0-0.88-1.44-0.88-3.2zm0-16.1c0-3.05 16.83-26.92 17.52-24.85 0.81 2.45-13.6 25.91-16.03 26.09-0.82 0.07-1.49-0.49-1.49-1.24zm0-15.2c0-1.55 2.34-6.32 5.21-10.58 6.44-9.57 6.52-9.66 7.78-8.4 1.18 1.19-8.42 18.99-11.16 20.68-1.01 0.62-1.83-0.14-1.83-1.7zm-3.99-9.54c0-3.35 12.77-20.34 13.54-18.02 0.88 2.63-9.33 20.19-11.74 20.19-0.99 0-1.8-0.98-1.8-2.17zm40.88-1.82c0.67-1.1 2.07-1.99 3.11-1.99 1.03 0 1.87 0.89 1.87 1.99s-1.4 1.99-3.11 1.99-2.55-0.89-1.87-1.99zm-2.99-6.44c0-3.63 3.53-6.64 5.49-4.68 0.69 0.68-0.27 2.76-2.12 4.61-3.11 3.11-3.37 3.12-3.37 0.07zm-2-9.89c0-1.72 1.35-4.24 2.99-5.61 3.81-3.15 3.77-0.19-0.06 4.87-2.34 3.1-2.93 3.25-2.93 0.74zm-2.82-14.56c1.79-2.73 4.12-4.44 5.16-3.79 1.08 0.67 0.42 2.82-1.52 4.97-4.95 5.47-7.46 4.66-3.64-1.18zm-7.86-4.55c-0.63-1.01 1.52-4.39 4.77-7.5 4.11-3.94 5.91-4.75 5.91-2.65 0 3.87-9.18 12.59-10.68 10.15zm-5.27-10.18c0-2.55 5.86-7.01 7.31-5.56s-3.01 7.31-5.56 7.31c-0.96 0-1.75-0.79-1.75-1.75zm-2.25-11.6c2.4-4.63 5.93-7.56 7.36-6.13 0.47 0.47-1.51 3.03-4.39 5.68-5.01 4.6-5.14 4.62-2.97 0.45zm-0.61-14.15c3.36-2.97 8.17-8.37 10.68-12 5.49-7.9 7.95-7.12 2.94 0.94-5.61 9.03-13.24 16.63-16.62 16.54-2.13-0.05-1.18-1.79 3-5.48zm10.93 4.57c-0.05-2.96 3.51-8.03 4.76-6.78 0.6 0.6-0.22 2.82-1.82 4.93s-2.92 2.95-2.94 1.85zm33.89-60.16c0.14-2.75 15.61-19.53 16.86-18.28 1.45 1.45-11.07 18.01-14.45 19.13-1.37 0.45-2.46 0.07-2.41-0.85zm-12.05-2.41c0-0.89 1.78-3.23 3.97-5.21 2.18-1.97 6.76-7.94 10.17-13.27 6.21-9.68 12.03-13.67 7.57-5.19-6.31 11.98-21.71 28.78-21.71 23.67zm-11.89-3.82c-0.04-1.42 2.24-5.01 5.06-7.98 2.82-2.96 7.8-9.21 11.06-13.87 6.87-9.82 11.68-11.48 6.35-2.19-4.9 8.55-22.37 27.24-22.47 24.04zm19.87-44.41c0-3.28 3.92-9.84 5.88-9.84 0.96 0 0.73 2.69-0.51 5.98-2.2 5.83-5.37 8.11-5.37 3.86zm-9.91-3.36c0.11-2.67 5.84-9.21 7.03-8.03 1.38 1.38-3.4 9.52-5.58 9.52-0.83 0-1.49-0.67-1.45-1.49zm-8.01-3.99c0.06-2.73 3.72-7.38 4.89-6.21 1.57 1.57-0.93 7.71-3.14 7.71-0.98 0-1.77-0.68-1.75-1.5zm-58.87 330.54c0.7-1.13-0.1-1.47-1.87-0.79-3.46 1.33-4.09 2.76-1.22 2.76 1.03 0 2.42-0.89 3.09-1.97zm-3.14-5.28c2.73-2.39-3.76-0.17-6.93 2.37-3.65 2.93-3.59 2.97 1.11 0.73 2.74-1.31 5.36-2.7 5.82-3.1zm-7.81-8.82c0-1.16-0.9-1.56-2-0.88-1.09 0.68-1.99 1.63-1.99 2.11s0.9 0.88 1.99 0.88c1.1 0 2-0.95 2-2.11zm-8.17-24.41c2.3-4.75 4.12-12.17 4.05-16.48-0.12-7.4-0.25-7.56-2.27-2.86l-2.14 4.98-1.57-6.98c-0.87-3.84-1.14-23.68-0.61-44.11 0.88-33.66 0.66-37.25-2.42-38.43-1.87-0.71-3.72-0.98-4.11-0.58-1.19 1.19-1.05 109.37 0.15 110.56 0.6 0.61-0.01 2.46-1.37 4.11-2.15 2.61-1.91 2.7 1.81 0.72 2.36-1.26 6.18-6.18 8.48-10.93zm-21.57 6.08c0.4-10.56-0.56-24.93-2.1-31.4-1.2-5.05-1.64-1.05-1.57 14.45 0.05 11.79 0.86 21.44 1.79 21.44 0.94 0 1.78-2.02 1.88-4.49zm-17.45-23.18c-0.8-1.2-12.91 9.52-17.34 15.35-2.23 2.94 0.87 0.85 6.89-4.63 6.03-5.49 10.73-10.31 10.45-10.72zm-4.66-2.67c4.74-3.65 5.91-5.4 3.65-5.46-3.97-0.11-25.58 19.14-25.58 22.8 0 1.41 3.36-0.71 7.48-4.71 4.11-4 10.61-9.68 14.45-12.63zm135.77-0.07c3.81-6.76 0.43-3.38-5.98 5.98-4.9 7.17-5.2 8.02-1.23 3.49 2.88-3.29 6.13-7.55 7.21-9.47zm14.96 2.25c4.37-5.92 11.73-25.4 10.19-26.95-0.75-0.74-22.07 26.51-23.09 29.51-0.42 1.23 0.25 1.6 1.5 0.83 2.84-1.76 2.86-0.04 0.05 5.22-2.09 3.91-1.99 3.96 2.11 1.09 2.37-1.66 6.53-6.03 9.24-9.7zm20.35 6.94c4.62-1.24 13.6-15.45 12.7-20.08-0.25-1.33-1.77-5.53-3.35-9.34-2.88-6.87-2.93-6.9-8.91-3.91-7.12 3.55-7.14 3.65-2.02 9.14 6.9 7.42 4.65 17.9-4.99 23.16-4.55 2.49-0.97 3.05 6.57 1.03zm-191.11-26.64c0.04-2.74-1.38-7.68-3.15-10.97s-4.95-10.47-7.07-15.95l-3.86-9.97 1.11 9.75c0.6 5.36 1.1 17.89 1.1 27.84v18.09l5.9-6.9c3.25-3.8 5.93-9.15 5.97-11.89zm26.02-6.35c0-2.44-2.99-0.61-14.51 8.91-5.24 4.33-10.45 9.59-11.57 11.69-1.13 2.1 4.28-1.26 12.01-7.46 7.74-6.21 14.07-12.12 14.07-13.14zm159.1 18.04c-0.5-1.49-1.41-0.59-2.11 2.11-0.87 3.32-0.61 4.09 0.87 2.61 1.16-1.15 1.72-3.28 1.24-4.72zm-161.18-6.21c0.04-0.82-0.59-1.46-1.41-1.43-1.78 0.08-12.47 9.27-12.47 10.72 0 1.59 13.78-7.63 13.88-9.29zm151.71-13.58c6.12-9.54 7.33-13.83 3.91-13.83-1.1 0-2 1.01-2 2.25s-4.61 9.09-10.25 17.45c-8.62 12.78-9.24 14.25-3.9 9.26 3.49-3.27 9-10.08 12.24-15.13zm-153.29-3.22c2.25-2.39 3.76-5.29 3.37-6.45-0.8-2.38-19.66 13.01-19.66 16.04 0 2.52 10.99-3.95 16.29-9.59zm9.76-12.69c-1.68-4.05-1.99-2.81-1.75 7.06 0.37 15.63 2.46 20.75 3.21 7.9 0.33-5.53-0.33-12.26-1.46-14.96zm60.33 16.4c4.72 0.47 6.46-0.24 6.96-2.86 0.74-3.83-5.21-7.22-7.29-4.16-0.72 1.04-4.18 3.06-7.71 4.49s-7.57 3.98-8.98 5.68c-2.12 2.56-1.43 2.5 4.09-0.35 3.65-1.89 9.47-3.15 12.93-2.8zm-2.25 4.25c-1.44-0.57-3.16-0.5-3.82 0.16-0.67 0.66 0.51 1.14 2.61 1.05 2.33-0.1 2.8-0.57 1.21-1.21zm-49.32-55.46c0.76-31.54 0.52-57.56-0.59-62.82-1.33-6.39-1.94 9.34-2.09 54.67-0.12 35.01 0.14 63.27 0.58 62.82 0.44-0.46 1.39-25.06 2.1-54.67zm44.96 41.7c0-2.61-6.06-0.03-12.04 5.14l-6.91 5.96 9.47-5.13c5.21-2.83 9.48-5.51 9.48-5.97zm-60.63-9.12c2.35-3.79-1.22-4.26-5.18-0.68-6.99 6.33-6.99 1.24 0-5.98 7.36-7.59 6.79-12.3-0.63-5.33-7.84 7.37-8.19 4.78-0.6-4.48 7.83-9.56 9.95-16.22 3.21-10.12-6.18 5.59-6.76 2.24-0.83-4.81l5.29-6.29-0.73-59.72c-0.53-43.64-1.39-60.64-3.21-63.13-1.38-1.88-2.56-2.57-2.63-1.54s-0.46 11.75-0.86 23.81c-1.41 42.47-2.93 58.04-8.08 82.75-0.57 2.75-1.98 12.64-3.13 22-1.87 15.17-1.67 18.29 1.87 28.78l3.97 11.76-4.79 3.77c-2.64 2.08-4.8 4.69-4.8 5.81 0 1.99 18.75-12.73 21.13-16.6zm166.8 7.28c-0.53-2.73-1.69-4.97-2.6-4.97-2.95 0-4.27 4.11-2.98 9.26 0.98 3.91 1.86 4.56 3.9 2.87 1.47-1.22 2.21-4.38 1.68-7.16zm-144.06 5c0-1.09-0.9-1.99-1.99-1.99-1.1 0-2 0.9-2 1.99 0 1.1 0.9 2 2 2 1.09 0 1.99-0.9 1.99-2zm49.48-14.57l0.63-7.6-5.99 3.1c-3.29 1.7-6.56 4.03-7.28 5.19-1.99 3.22 3.19 8.16 7.85 7.5 3.25-0.47 4.3-2.26 4.79-8.19zm-19.57-3.44c0-2.84-0.95-2.4-5.17 2.35-3.78 4.26-3.78 4.27 0.68 1.92 2.47-1.29 4.49-3.22 4.49-4.27zm113.59-4.36c0.04-0.79-1.08-0.99-2.49-0.45s-2.73 3.43-2.93 6.42l-0.37 5.44 2.86-4.99c1.57-2.74 2.89-5.63 2.93-6.42zm-190.98 7.05c-1.44-0.57-3.16-0.5-3.83 0.16-0.66 0.66 0.52 1.13 2.62 1.05 2.32-0.1 2.8-0.57 1.21-1.21zm199.89-9.25c0.73-5.84 0.86-16.38 0.28-23.43-0.57-7.05-1.57-29.87-2.22-50.7-0.64-20.84-1.98-44.17-2.97-51.85-1-7.68-1.9-19.79-2-26.92-0.16-10.75-0.53-12.11-2.18-7.97-1.95 4.86-2.11 63.09-0.18 66.54 0.53 0.96 1.28 9.03 1.66 17.95 1.01 23.79 2.6 70.89 2.68 79.52 0.12 11.13 3.41 9.03 4.93-3.14zm-122.67-0.6c2.59-2.33-1.58-1.98-5.81 0.49l-4.99 2.91 4.99-1.32c2.74-0.73 5.36-1.67 5.81-2.08zm14.63-3.43c4.15-3.27 4.63-9.28 0.74-9.28-1.51 0-3.86-1.35-5.23-3-4.42-5.32-5.98-3.21-5.98 8.05 0 11.81 0.55 12.04 10.47 4.23zm-92.23-1.31c1.65-1.06 2.1-1.93 1-1.93s-3.34 0.87-4.99 1.93c-1.64 1.06-2.09 1.93-0.99 1.93 1.09 0 3.34-0.87 4.98-1.93zm33.7-5.6c-0.11-2.95-0.91-7.61-1.79-10.35-1.22-3.79-1.65-2.21-1.8 6.6-0.12 7.26 0.55 11.12 1.8 10.35 1.09-0.68 1.9-3.65 1.79-6.6zm157.27-0.15c0.59-7.88-2.41-6.6-4.52 1.93-0.88 3.57-0.46 5.15 1.36 5.15 1.58 0 2.84-2.83 3.16-7.08zm-1.53-11.32c0-1.71-0.9-2.55-2-1.87-1.09 0.68-1.99 2.07-1.99 3.11 0 1.03 0.9 1.87 1.99 1.87 1.1 0 2-1.4 2-3.11zm-193.45-14.68c3.07-16.28 1.63-51.51-2.94-71.94-8.5-38.01-11.21-55.15-10.2-64.66l1.08-10.12-3.2 7.48c-3.56 8.32-7.67 10.43-4.61 2.36 3.19-8.39 2.11-10.17-2.79-4.6-4.39 4.99-6.92 17.93-7.95 40.77-0.15 3.36-1.84 7.69-3.76 9.61-4.32 4.32-4.64 9.51-0.5 7.92 3.52-1.35 3.63-0.68 1.05 6.13-1.07 2.81-1.48 5.11-0.9 5.11s1.99-2.69 3.14-5.98c2.81-8.08 5.88-7.66 3.55 0.48-2.33 8.11-2.35 11.48-0.09 11.48 0.97 0 2.37-4.01 3.11-8.92 0.73-4.91 2.31-9.53 3.49-10.26 2.07-1.28 1.74 2.75-1.61 19.68-0.62 3.11-0.21 5.49 0.94 5.49 1.12 0 2.6-4.27 3.3-9.48 2.84-21.23 5.67-19.3 3.35 2.3-0.9 8.45-0.91 15.82-0.02 16.38 0.89 0.55 1.64-1.52 1.66-4.6 0.03-3.08 1.29-10.09 2.82-15.57 2.21-7.94 2.81-8.8 2.95-4.22 0.3 9.64-4.42 41.11-6.16 41.11-0.9 0-1.64-2.15-1.64-4.77 0-2.63-1.34-5.29-2.99-5.92-1.64-0.63-2.99-2.51-2.99-4.17s-3.88-7.07-8.63-12.03c-8.34-8.7-13.3-11.28-13.3-6.89 0 1.16 0.89 1.55 1.99 0.88 1.1-0.68 1.99 0.16 1.99 1.87s0.9 3.11 2 3.11c1.09 0 1.99 1.7 1.99 3.78 0 2.07 1.28 4.26 2.84 4.86 1.73 0.67 2.42 2.68 1.76 5.2-0.76 2.91-0.13 4.11 2.19 4.11 2.48 0 3.01 1.31 2.21 5.48-0.57 3.02-0.52 4.36 0.13 2.99 1.93-4.09 5.2-2.82 3.83 1.5-0.92 2.9-0.36 3.99 2.08 3.99 2.56 0 3.05 1.15 2.1 4.93-0.97 3.87-0.58 4.68 1.78 3.77 2.22-0.85 3.02 0.22 3.02 4.04 0 2.86 0.91 5.2 2.03 5.2 1.17 0 1.5 2.12 0.77 5.01-1.06 4.22-0.69 4.79 2.31 3.64 2.76-1.06 3.27-0.61 2.27 1.97-0.81 2.12-0.28 3.34 1.44 3.34 2.08 0 2.35 1.65 1.15 6.97-0.86 3.83-0.92 6.56-0.13 6.07 0.8-0.49 2.63-7.19 4.09-14.88zm-8.72-31.06c0.74-8.77 1.55-17.75 1.8-19.94s0.57-5.74 0.71-7.88c0.17-2.69 0.89-3.25 2.33-1.81 1.43 1.43 1.33 7.85-0.32 20.83-3.04 23.86-6.33 30.27-4.52 8.8zm107.75 28.61c-0.71-10.04-1.3-24.91-1.3-33.05 0-13.02-0.42-14.72-3.49-14.13-2.13 0.41-4.58 4.14-6.3 9.62-7.18 22.83-10.91 27.89-20.56 27.89-15.3 0-4.29 15.13 15.11 20.77 6.08 1.77 11.6 4.1 12.27 5.18s2.19 1.97 3.39 1.97c1.51 0 1.78-5.61 0.88-18.25zm-63-16.34c-1.48-1.47-2.11 0.95-2.11 8.1 0 15.34 2.87 19.93 3.6 5.76 0.33-6.47-0.34-12.7-1.49-13.86zm-26.04 16.53c0-1.17-0.89-1.56-1.99-0.88-1.1 0.67-1.99 1.62-1.99 2.11 0 0.48 0.89 0.88 1.99 0.88s1.99-0.95 1.99-2.11zm2-7.86c0-1.1-0.85-2-1.88-2s-2.43 0.9-3.11 2c-0.67 1.09 0.17 1.99 1.88 1.99s3.11-0.9 3.11-1.99zm63.88-18.08c0.6-4.86 0.71-21.85 0.26-37.76-0.76-27.01 4.36-107.96 7.12-112.42 0.63-1.02 0.23-1.29-0.89-0.6s-2.54 4.65-3.15 8.79-2.94 17.95-5.17 30.69c-5.21 29.71-11.94 81.51-13.4 103.13-1.25 18.47-0.12 20.8 8.91 18.4 4.43-1.17 5.42-2.78 6.32-10.23zm-61.89-0.25c0-2.62-4.53-0.98-5.52 2-0.49 1.46 0.42 1.9 2.37 1.16 1.73-0.67 3.15-2.09 3.15-3.16zm23.45-42.46c-0.43-25.76-1.4-47.44-2.15-48.19-0.74-0.75-1.36 19.73-1.36 45.5 0 41.88 0.54 49.52 3.48 49.52 0.45 0 0.46-21.07 0.03-46.83zm-22.14 33.78c0.65-1.69 0.7-3.56 0.11-4.15-1.76-1.75-9.61 3.27-8.33 5.33 1.82 2.96 6.91 2.23 8.22-1.18zm-1.14-8.89c1 0 1.83-1.34 1.83-2.99 0-3.54-0.97-3.68-6.12-0.92-4.61 2.46-5.21 6.86-0.7 5.12 1.74-0.66 3.98-1.21 4.99-1.21zm76.59-7.96c0.77-1.23-0.44-1.34-3.27-0.29-2.47 0.91-4.86 2.78-5.32 4.15-0.64 1.92 0.12 1.99 3.28 0.3 2.26-1.21 4.65-3.08 5.31-4.16zm-76.59-2.01c1 0 1.83-1.34 1.83-2.99 0-3.54-0.97-3.68-6.12-0.92-4.61 2.46-5.21 6.86-0.7 5.12 1.74-0.66 3.98-1.21 4.99-1.21zm85.96-26.13c-0.33-13.59-1.26-33.53-2.06-44.31-0.79-10.77-0.74-20.02 0.12-20.55 0.85-0.53 1.57-0.24 1.58 0.65 0.01 0.88 1.34 15.07 2.95 31.52s2.95 36.12 2.97 43.72l0.04 13.8 5.22-4.83c5.2-4.81 5.22-4.96 4.06-27.3-1.12-21.69-2.18-29.23-8.33-59.29-1.56-7.68-4.87-24.05-7.35-36.39-2.53-12.58-5.49-22.43-6.74-22.43-1.35 0-2.75 6.12-3.53 15.45-0.72 8.5-1.78 19.94-2.37 25.42-4.43 41.42-4.43 38.53-0.01 39.87 4.02 1.21 4.02 1.27-0.39 3.42-5.56 2.71-5.95 6.3-0.5 4.57 2.19-0.7 3.99-0.37 3.99 0.73s-1.8 2.56-3.99 3.26-3.99 2.21-3.99 3.36 1.8 1.62 3.99 1.05c2.19-0.58 3.99-0.26 3.99 0.69 0 0.96-1.8 2.7-3.99 3.87-5.65 3.03-4.97 6.31 1 4.81 2.82-0.71 4.98-0.39 4.98 0.74 0 1.1-2.24 2.56-4.98 3.25-7.34 1.84-6.08 5.23 1.49 4.03 5.73-0.9 6.06-0.73 2.82 1.55-10.54 7.4-10.63 7.55-3.82 6.28 8.11-1.52 8.31 0.23 0.5 4.27-3.29 1.7-5.98 4-5.98 5.1 0 1.28 1.53 1.2 4.2-0.23 2.71-1.45 4.89-1.56 6.14-0.32 1.24 1.25-0.25 2.69-4.21 4.07-3.37 1.18-6.13 3.06-6.13 4.19 0 1.35 1.67 1.41 4.91 0.18 7.13-2.71 8.12 1.04 1.05 3.97-7.76 3.21-7.75 6.68 0.02 4.97 3.51-0.77 5.98-0.49 5.98 0.66 0 1.09 1.58 1.74 3.49 1.45 3.15-0.48 3.43-2.96 2.88-25.25zm-87.22 15.84c5-2.27 6.9-5.66 3.18-5.66-3.33 0-12.06 4.56-12.06 6.3 0 2.31 2.88 2.1 8.88-0.64zm30.21-9.11c-0.66-0.66-1.13 0.52-1.04 2.62 0.09 2.32 0.57 2.8 1.2 1.21 0.58-1.44 0.51-3.16-0.16-3.83zm16.4-2.56c-0.44-1.33-1.95 0.15-3.36 3.29-2.4 5.35-2.34 5.5 0.8 2.42 1.85-1.81 3.01-4.38 2.56-5.71zm-49.51 4.02c2.44-1.57 2.18-1.94-1.37-1.97-2.41-0.01-4.93 0.87-5.6 1.97-1.57 2.54 3.05 2.54 6.97 0zm118.99-16.66c-0.48-1.26-1.81 0.09-2.97 3s-3.08 5.89-4.26 6.62-1.59 2.24-0.9 3.35c1.56 2.52 9.3-9.84 8.13-12.97zm-115 5.48c0-0.43-1.34-0.79-2.99-0.79-1.64 0-2.99 0.87-2.99 1.93 0 1.07 1.35 1.42 2.99 0.79 1.65-0.63 2.99-1.5 2.99-1.93zm-56.62-4.24c-0.66-0.66-1.13 0.52-1.05 2.62 0.1 2.32 0.57 2.8 1.21 1.21 0.57-1.44 0.5-3.16-0.16-3.83zm101.33-6.52l1.32-4.98-3 4.98c-1.65 2.74-3.01 6.33-3.01 7.98-0.01 2.66 0.17 2.66 1.68 0 0.93-1.65 2.28-5.24 3.01-7.98zm-99.22 0.76l5.66-2.59-5.98 1.06-5.99 1.05 4.88-4.26 4.87-4.26-5.37 1.34c-3.41 0.86-5.37 0.55-5.37-0.86 0-1.21 1.38-2.21 3.07-2.21 2.52 0 2.61-0.49 0.5-2.79-3.62-3.92-4.2-2.68-4.64 9.96-0.21 6.13 0.31 10.02 1.16 8.64 0.85-1.37 4.09-3.66 7.21-5.08zm166.12-2.63c0.04-2.03-0.8-1.74-2.87 0.99-1.61 2.13-2.95 5.17-2.99 6.75-0.04 2.02 0.8 1.73 2.87-1 1.61-2.13 2.95-5.16 2.99-6.74zm-118.64 5.77c-0.71-1.14 0.17-4.31 1.96-7.03 1.78-2.73 2.71-5.83 2.05-6.89-0.66-1.07-0.31-1.94 0.79-1.94 1.09 0 1.9-1.57 1.81-3.49-0.1-1.92 0.84-7.15 2.1-11.61 1.25-4.47 2.4-13.71 2.56-20.54 0.27-12.26 0.37-12.45 7.85-16.27 4.17-2.13 8.18-4.83 8.91-6.01s3.48-2.97 6.12-3.97c6.26-2.38 6.14-5.91-0.2-5.91-3.1 0-4.98-1.13-4.98-2.99 0-1.99 1.99-2.99 5.98-2.99 3.29 0 5.98-0.67 5.98-1.5 0-0.82-3.28-1.49-7.29-1.49-4.05 0-7.67-1.11-8.14-2.5-0.59-1.72 1.65-2.49 7.29-2.49 4.48 0 8.14-0.89 8.14-1.99s-3.53-2-7.86-2c-8.07 0-12.01-2.86-8.61-6.25 2.32-2.33 7.75-2.56 14.48-0.64l4.98 1.42-4.3-4.5c-4.9-5.13-9.48-4.64-20.54 2.18-6.23 3.84-6.56 4.49-3.49 6.74 5.22 3.81 4.3 7.69-1.48 6.24-4.1-1.03-6.01 0.26-12.01 8.12-3.92 5.13-7.57 11.64-8.11 14.47-0.54 2.82-2.31 9.28-3.94 14.37-4.2 13.11-3.69 23.27 2.06 41.04 6.59 20.39 6.63 20.5 8 20.5 0.65 0 0.6-0.93-0.11-2.08zm18.5-85.97c-3.97-4.17-4.65-8.38-1.17-7.22 3.28 1.1 8.21 8.97 6.27 10.02-0.89 0.48-3.18-0.78-5.1-2.8zm96.97 73c0.68-1.78 0.35-2.58-0.78-1.88-1.09 0.67-1.97 2.06-1.97 3.09 0 2.87 1.43 2.24 2.75-1.21zm-0.76-7.99c0-0.49-0.9-0.88-1.99-0.88-1.1 0-2 0.95-2 2.11s0.9 1.56 2 0.88c1.09-0.68 1.99-1.63 1.99-2.11zm-175.65-9.86c0.1-3.29-0.22-3.46-1.82-0.99-1.06 1.64-1.88 5.23-1.82 7.97 0.1 4.57 0.25 4.65 1.82 1 0.94-2.19 1.76-5.78 1.82-7.98zm15.53-5.62c2.68-5.3 2.62-5.5-0.95-3.59-2.09 1.12-5.63 1.55-7.88 0.96-2.24-0.59-4.68-0.09-5.42 1.1-0.83 1.35 0.6 2.17 3.76 2.17 4.2 0 5.13 0.97 5.26 5.48 0.09 3.14 0.64 4.21 1.27 2.49 0.62-1.64 2.39-5.52 3.96-8.61zm105.29-21.31c1.66-7.91 3.58-15.29 4.26-16.38 0.68-1.1 0.03-2.74-1.44-3.65-2.14-1.32-1.91-2.56 1.19-6.26 2.12-2.53 2.58-3.48 1.02-2.11-3.13 2.74-8.04 3.35-8 1 0.01-0.83 3.15-3.53 6.98-6.01 3.82-2.47 6.95-5.47 6.95-6.65 0-1.19-2.76 0.17-6.13 3.01-6.73 5.66-9.82 6.5-9.82 2.67 0.01-1.37 4.49-5.55 9.97-9.29 5.49-3.74 9.97-8.08 9.97-9.66 0-1.76-3.73 0.26-9.75 5.3-5.36 4.49-10.29 8.16-10.97 8.16-2.89 0-0.8-4.57 4.27-9.29l5.48-5.12-5.19 3.07c-5.13 3.04-5.22 2.99-7.48-4.26-2.06-6.58-1.87-7.69 1.92-10.82 3.59-2.97 3.71-3.49 0.82-3.49-1.87 0-3.84-1.68-4.38-3.73-1.3-4.97-12.66-13.36-14.36-10.61-0.71 1.15-0.96 6.25-0.55 11.33 0.52 6.56 1.48 8.97 3.32 8.27 5.78-2.22 8.56 3.56 9.47 19.67 0.5 8.77 0.2 18.42-0.66 21.43-0.93 3.24-0.79 5.49 0.32 5.49 1.04 0 1.33 2.24 0.64 4.98-0.8 3.2-0.41 4.99 1.1 4.99 1.43 0 1.85 1.54 1.07 3.99-0.73 2.31-0.35 3.98 0.91 3.98 1.34 0 1.66 2 0.84 5.29-1 3.95-0.7 4.89 1.17 3.73 1.9-1.17 2.19 0.08 1.2 5.19-0.98 5.06-0.79 5.92 0.77 3.45 1.13-1.81 3.42-9.76 5.09-17.67zm-31.5 1.51c-0.47-2.47-0.86-0.45-0.86 4.49 0 4.93 0.39 6.95 0.86 4.48 0.48-2.47 0.48-6.5 0-8.97zm9.14 6.48c0.57-2.19 0.23-3.99-0.76-3.99-1 0-1.81 1.8-1.81 3.99s0.34 3.99 0.76 3.99 1.24-1.8 1.81-3.99zm106.17-17.65c-5.38-1.04-19.99 14.23-18.13 18.96 1.24 3.16 2.85 2.15 11.58-7.29 8.24-8.91 9.47-11.1 6.55-11.67zm-101.15 6.63c-0.61-0.61-1.73 0.49-2.48 2.46-1.08 2.84-0.85 3.07 1.12 1.12 1.36-1.36 1.97-2.97 1.36-3.58zm89.99-5.51c4.78-7.58-0.57-7.84-7.04-0.34-3.62 4.19-6.13 8.35-5.57 9.25 1.21 1.95 9.42-3.85 12.61-8.91zm-151.73 3.42c6.65-3.31 8.74-7.49 2.8-5.59-6.65 2.13-12.46 5.42-12.46 7.07 0 2.44 2.61 2.04 9.66-1.48zm145.88-12.92c0-3.25-3.12-2.07-7.84 2.95-2.71 2.88-3.93 5.84-3.02 7.31 1.1 1.77 2.84 0.94 6.19-2.96 2.57-2.98 4.67-6.27 4.67-7.3zm-136.68-1.27c0.74-2.95 3.14-7.88 5.34-10.96l3.99-5.61h-4.03c-7.36 0-14.18 4.39-14.44 9.29-0.14 2.57-0.38 5.79-0.54 7.16-0.26 2.2 3.37 4.94 7.05 5.34 0.71 0.08 1.89-2.27 2.63-5.22zm127.92-0.12c4.04-5.33 3.27-7.55-1.21-3.49-3.91 3.54-5.25 6.98-2.72 6.98 0.7 0 2.47-1.57 3.93-3.49zm-3.21-8.72c0-2.21-2.2-2.19-5.74 0.05-1.51 0.96-2.1 2.79-1.32 4.06 1.09 1.75 2.12 1.75 4.25-0.02 1.55-1.29 2.81-3.13 2.81-4.09zm-5.33-8.26c-1.38-2.28-4.64 0.33-4.64 3.72 0 2.42 0.5 2.49 2.78 0.38 1.53-1.42 2.37-3.26 1.86-4.1zm-88.22-38.09l-1.17-13.05-8.47 3.8c-4.66 2.09-8.59 5.2-8.72 6.9-0.53 6.52-0.84 7.27-3.74 9.11-1.99 1.25-2.16 1.9-0.5 1.92 1.37 0.02 2.49 1.64 2.49 3.62 0 1.97-1.12 4.8-2.49 6.27-2 2.15-2 2.41 0 1.28 1.64-0.93 2.49-0.01 2.49 2.7 0 2.26 0.95 4.11 2.11 4.11s1.58 0.86 0.93 1.91c-0.76 1.23-3.02 1.23-6.27-0.01-5.34-2.03-8.73-1.09-8.73 2.42 0 1.14 1.34 1.57 2.97 0.94 1.64-0.63 4.11 0.08 5.49 1.57 2.07 2.24 4.42 0.71 13.64-8.87l11.15-11.58-1.18-13.04zm8.69-7.42c0.37-10.23-0.07-20.43-0.97-22.67-1.02-2.5-1.7 5.07-1.78 19.69-0.15 27.86 1.76 29.92 2.75 2.98zm44.5 9.09c1.75-3.14-7.56-25.43-11.7-27.99-3.33-2.05-4.55 0.78-1.78 4.12 4.3 5.18 0.31 5.98-4.99 0.99-6.11-5.74-6.64-3.01-0.65 3.36 2.38 2.54 3.6 5.29 2.72 6.11-0.89 0.83-2.01 0.38-2.5-0.99s-2.16-2.49-3.72-2.49c-1.55 0-2.82-0.9-2.82-1.99 0-1.1-1.8-2-3.99-2s-3.99-0.89-3.99-1.99c0-2.51-5.35-2.63-6.88-0.16-0.62 1.01 4.03 4.76 10.35 8.34 6.32 3.57 14.61 9.02 18.42 12.12 7.99 6.48 9.19 6.74 11.53 2.57zm19.52-4.65c1.05-0.94 8.63-3.35 16.85-5.35 15.32-3.73 21.05-6.62 16.45-8.3-1.37-0.5-2.49-4.08-2.49-7.96 0-7.02-0.01-7.03-4.91-3.82-5.55 3.63-10.92 4.22-11.29 1.23-0.14-1.1-0.36-2.98-0.5-4.19-0.14-1.2-4.29-4.45-9.22-7.21-8.34-4.67-11.03-7.07-12.47-11.15-0.72-2.04-7.47 0.45-7.47 2.76 0 0.94 1.34 1.2 2.99 0.57 3.94-1.52 3.8 1.06-0.31 5.6-3.51 3.88-1.03 5.18 2.73 1.43 1.22-1.22 3.33-1.85 4.69-1.39 1.36 0.45-2.15 4.22-7.8 8.37s-10.28 8.4-10.28 9.44c0 5.37 8.44 17.54 13.41 19.35 7.19 2.63 7.4 2.64 9.62 0.62zm-11.06-7.81c0-1.84 4.92-6.64 9.47-9.23 5.14-2.92 2.25 2.71-3.49 6.8-3.29 2.34-5.98 3.44-5.98 2.43zm7.97 0.67c0-0.48 0.9-1.43 2-2.11 1.09-0.68 1.99-0.28 1.99 0.88s-0.9 2.11-1.99 2.11c-1.1 0-2-0.39-2-0.88zm-13.21-6.69c0.72-1.16 4.88-4.94 9.25-8.4 5.54-4.38 7.95-5.4 7.95-3.33 0 1.62-3.36 5.05-7.48 7.61-9.61 5.98-11.31 6.7-9.72 4.12zm0.78-10.23c6.28-5.9 10.45-7.76 10.43-4.63-0.02 1.41-10.65 8.58-14.95 10.07-1.09 0.37 0.94-2.07 4.52-5.44zm29.43-17.99c-1.67-3.24-3.02-7.95-2.99-10.47 0.04-4 0.46-3.74 3.28 1.98 4.42 8.98 11.86 14.37 19.82 14.37 5.33 0 7.26-1.15 9.65-5.78 9.16-17.72 9.55-48.3 0.54-42.73-0.96 0.59-1.45-1.48-1.09-4.6 0.74-6.48 7.61-9.49 7.66-3.37 0.03 2.97 0.37 3.11 1.85 0.77 2.52-3.98 0.29-28.07-3.09-33.45-1.53-2.43-2.78-5.73-2.78-7.34s-1.88-3.53-4.18-4.26-5.95-3.09-8.11-5.25c-2.3-2.3-6.15-3.75-9.28-3.5-2.94 0.23-7.84-0.59-10.88-1.83-4.38-1.79-7.31-1.61-13.96 0.87-4.63 1.71-10.22 3.59-12.41 4.17-2.19 0.57-7.62 6.1-12.05 12.3-6.26 8.74-8.19 13.37-8.63 20.75-0.77 13.06 1.36 21.98 4.94 20.61 4.54-1.75 14.74 1.05 14.74 4.04 0 1.51 0.9 2.74 2 2.74 1.09 0 1.99 0.9 1.99 1.99 0 1.1-1.35 2-2.99 2-1.65 0-2.99-0.76-2.99-1.68s-2.28-2.71-5.06-3.97c-4.47-2.04-5.24-1.8-6.74 2.17-2.2 5.82-0.85 7.17 2.54 2.53 3.46-4.73 6.57-2.68 7.71 5.08 0.82 5.59 0.46 6.09-3.76 5.29-2.56-0.49-4.66-0.44-4.66 0.11 0 2 7.07 6.29 10.47 6.36 4.67 0.08 4.46 4.17-0.27 5.4-2.57 0.68-3.44 2.21-2.74 4.87 0.94 3.58 1.37 3.65 5.65 0.84 4.26-2.79 4.86-2.72 7.42 0.94 2.1 3 16.75 12.67 20.9 13.78 0.3 0.09-0.82-2.49-2.5-5.73zm16.4-8.81c-10.54-3.9-4.45-9.13 8.48-7.29 4.02 0.57 4.27 0.97 2.88 4.59-1.65 4.31-4.91 5.08-11.36 2.7zm-2.38-15.04c-1.44-2.33 0.77-8.15 3.1-8.15 0.97 0 1.78 0.89 1.78 1.99s1.4 1.99 3.12 1.99c2.3 0 2.78-1.19 1.84-4.48-0.71-2.47-1.75-6.12-2.31-8.12-0.98-3.5-1.11-3.5-3.96 0-2.73 3.36-2.87 3.19-2-2.31 0.76-4.85 0.51-5.37-1.37-2.84-3.24 4.36-11.04 5.97-15.49 3.19-5.47-3.41-4.66-5.03 3.24-6.51 3.85-0.72 7.49-2.11 8.09-3.08 3.97-6.42 15.88 4.1 18.06 15.94 0.72 3.97 2.2 7.79 3.28 8.49s1.35 2.27 0.59 3.49c-1.64 2.65-16.37 2.98-17.97 0.4zm-24.64-8.55c-2.8-2.81-3.16-8.86-0.61-10.44 0.98-0.6 2.14 2.04 2.59 5.87s0.72 6.96 0.61 6.96c-0.1 0-1.27-1.08-2.59-2.39zm-17.37-15.75c-10.48-5.51-14.6-9.49-11.74-11.34 1.21-0.79 2.67-2.77 3.25-4.42 0.76-2.15 1.66-1.49 3.2 2.37 2.61 6.57 10.3 11.47 10.3 6.58 0-1.74-2.24-5.24-4.98-7.78-2.75-2.54-4.99-5.64-4.99-6.88 0-1.25-1.4-2.27-3.11-2.27s-2.55-0.89-1.87-1.99c2.28-3.7 9.93-1.92 15.16 3.55 4.18 4.36 5.23 7.48 5.37 15.89 0.1 5.76-0.46 10.47-1.24 10.47-0.77 0-4.98-1.88-9.35-4.18zm20.96-7.55c0-2.22 8.04-4.42 10.53-2.88 1.03 0.64 0.65 1.92-0.84 2.87-3.55 2.24-9.69 2.25-9.69 0.01zm0.09-7.1c-1.47-1.78-3.63-2.92-4.8-2.53-2.6 0.87-12.25-10.2-10.46-11.99 0.71-0.7 2.34-0.22 3.64 1.08 3.9 3.9 5.71 2.68 4.31-2.88-1.9-7.58 3.63-5.24 6.24 2.64 1.65 4.96 2.47 5.59 4.49 3.42 3.38-3.61 3.15-4.82-1.85-10.15-2.38-2.54-3.79-5.15-3.13-5.82 2.15-2.14 5.8 1.51 9.27 9.27 2.43 5.43 4.16 7.12 6.06 5.94 2.52-1.55 2.31-4.8-0.78-12.26-0.86-2.08-0.14-3.7 2.02-4.53 4.4-1.68 8.69 4.03 8.77 11.69l0.06 5.93 3.3-4.71c2.58-3.68 2.8-5.5 1.04-8.33-1.48-2.36-1.57-4.05-0.27-4.85 1.09-0.67 3.28 1.75 4.86 5.39 1.63 3.76 2.91 5.11 2.96 3.14 0.04-1.92 0.82-3.49 1.73-3.49 2.78 0 6.78 9.2 5.73 13.19-0.9 3.45-1.1 3.4-2.39-0.6-1.24-3.86-2-4.1-6.69-2.11-2.9 1.23-7.14 3.87-9.4 5.85-4.35 3.81-8.84 4.77-8.84 1.89 0-3.34-10.32 0.31-11.74 4.15-1.32 3.56-1.68 3.62-4.13 0.67zm-24.02-22.93c0-3.76 1.56-6.96 4.32-8.89 5.39-3.78 6.95-2.84 8.08 4.85 1.1 7.44-1.98 9.88-5.97 4.73-2.82-3.64-2.89-3.62-1.88 0.69 0.72 3.03 0.15 4.49-1.74 4.49-1.78 0-2.81-2.16-2.81-5.87zm-47.76 71.02c-1.51-7.62-1.65-7.15-1.7 5.64-0.03 10.69 0.35 12.64 1.65 8.32 0.93-3.11 0.95-9.39 0.05-13.96zm-0.63-32.75c-0.43-4.11-0.79-0.75-0.79 7.48 0 8.22 0.36 11.59 0.79 7.48 0.43-4.12 0.43-10.85 0-14.96zm-0.05-30.91c-0.47-2.46-0.86-0.44-0.86 4.49 0 4.94 0.39 6.95 0.86 4.49 0.48-2.47 0.48-6.51 0-8.98zm98.3 138.34c0-2.55 5.86-7.01 7.31-5.57 1.45 1.45-3.01 7.32-5.56 7.32-0.97 0-1.75-0.79-1.75-1.75zm7.97 0.24c0-1.1 1.35-3.11 2.99-4.48 1.67-1.38 2.99-1.6 2.99-0.48 0 1.09-1.34 3.11-2.99 4.47-1.67 1.39-2.99 1.6-2.99 0.49z"/>
  </g>
  <metadata>
    <rdf:RDF>
      <cc:Work>
        <dc:format>image/svg+xml</dc:format>
        <dc:type rdf:resource="http://purl.org/dc/dcmitype/StillImage"/>
        <cc:license rdf:resource="http://creativecommons.org/licenses/publicdomain/"/>
        <dc:publisher>
          <cc:Agent rdf:about="http://openclipart.org/">
            <dc:title>Openclipart</dc:title>
          </cc:Agent>
        </dc:publisher>
        <dc:title>chlamys (clothing)</dc:title>
        <dc:date>2009-03-20T08:45:14</dc:date>
        <dc:description>Source: http://commons.wikimedia.org/wiki/File:Chlamys_(PSF).jpg PD image by Pearson Scott Foresman, donated to the Wikimedia Foundation</dc:description>
        <dc:source>http://openclipart.org/detail/22617/chlamys-(clothing)-by-warszawianka</dc:source>
        <dc:creator>
          <cc:Agent>
            <dc:title>warszawianka</dc:title>
          </cc:Agent>
        </dc:creator>
        <dc:subject>
          <rdf:Bag>
            <rdf:li>ancient</rdf:li>
            <rdf:li>clip art</rdf:li>
            <rdf:li>clipart</rdf:li>
            <rdf:li>cloak</rdf:li>
            <rdf:li>clothing</rdf:li>
            <rdf:li>drawing</rdf:li>
            <rdf:li>externalsource</rdf:li>
            <rdf:li>greek</rdf:li>
            <rdf:li>image</rdf:li>
            <rdf:li>media</rdf:li>
            <rdf:li>png</rdf:li>
            <rdf:li>psf</rdf:li>
            <rdf:li>public domain</rdf:li>
            <rdf:li>svg</rdf:li>
            <rdf:li>wikimedia commons</rdf:li>
          </rdf:Bag>
        </dc:subject>
      </cc:Work>
      <cc:License rdf:about="http://creativecommons.org/licenses/publicdomain/">
        <cc:permits rdf:resource="http://creativecommons.org/ns#Reproduction"/>
        <cc:permits rdf:resource="http://creativecommons.org/ns#Distribution"/>
        <cc:permits rdf:resource="http://creativecommons.org/ns#DerivativeWorks"/>
      </cc:License>
    </rdf:RDF>
  </metadata>
</svg>
